<svg width="291" height="243" viewBox="0 0 291 243" fill="none" xmlns="http://www.w3.org/2000/svg">
<g clip-path="url(#clip0)">
<path d="M209.406 144.156L211.696 142.564C211.913 142.409 212.128 142.243 212.348 142.088C207.439 141.136 202.964 138.324 199.666 134.116C196.368 129.908 194.444 124.558 194.212 118.95C194.044 115.093 194.691 111.246 196.1 107.726C197.412 104.433 199.349 101.504 201.775 99.1456C204.2 96.7875 207.056 95.0577 210.139 94.0782L210.026 104.231L214.975 93.1803C214.995 93.1767 215.016 93.1767 215.036 93.1803C217.904 93.0294 220.77 93.5166 223.471 94.6141C226.172 95.7115 228.655 97.3977 230.778 99.5765C232.9 101.755 234.621 104.384 235.842 107.312C237.063 110.24 237.761 113.411 237.894 116.643C237.913 117.113 237.894 117.575 237.894 118.024C239.617 115.811 241.18 113.438 242.216 110.838C244.312 105.571 244.361 99.6072 244.186 92.3584C243.855 77.9922 243.306 63.5189 242.589 49.0871C237.422 48.4403 232.628 45.7383 229.07 41.4663C225.512 37.1943 223.422 31.6325 223.175 25.7799C223.145 25.0236 223.154 24.2811 223.175 23.5421C223.175 23.3591 223.175 23.1726 223.2 22.9896C223.243 22.2747 223.301 21.5667 223.399 20.8692C223.399 20.7517 223.436 20.6412 223.454 20.5238C223.544 19.9321 223.652 19.3473 223.776 18.7695C223.825 18.5554 223.871 18.3378 223.923 18.1237C224.076 17.4952 224.23 16.877 224.441 16.2657C224.506 16.062 224.582 15.8651 224.65 15.6648C224.806 15.2159 224.974 14.7739 225.152 14.3353C225.247 14.1039 225.339 13.876 225.44 13.6446C225.465 13.5859 225.486 13.5272 225.514 13.4685C227.821 8.33268 231.653 4.27039 236.342 1.98773C241.031 -0.294928 246.283 -0.653624 251.182 0.973992L251.035 14.1868L255.939 3.27397C259.96 5.86825 263.141 9.84368 265.016 14.6196C266.89 19.3956 267.36 24.7218 266.358 29.8204H266.383C266.349 29.9965 266.3 30.1658 266.263 30.3384C266.196 30.6631 266.122 30.9842 266.042 31.3054C265.938 31.7163 265.822 32.1204 265.702 32.5244C265.61 32.8249 265.521 33.1323 265.42 33.4292C265.273 33.8644 265.114 34.2891 264.936 34.7139C264.838 34.9626 264.749 35.2147 264.63 35.4599C264.35 36.0953 264.043 36.7169 263.71 37.3247C263.597 37.5354 263.468 37.7357 263.349 37.9463C263.116 38.3538 262.88 38.7579 262.625 39.1516C262.469 39.3933 262.301 39.6247 262.135 39.863C261.896 40.2083 261.651 40.5537 261.396 40.8679C261.216 41.0993 261.032 41.3272 260.842 41.5586C260.575 41.8763 260.299 42.1837 260.014 42.4876C259.827 42.6913 259.637 42.8951 259.441 43.0885C259.12 43.4096 258.782 43.717 258.442 44.0174C258.271 44.1694 258.105 44.3282 257.927 44.4733C257.411 44.9061 256.876 45.3125 256.325 45.6923C256.22 45.7614 256.11 45.8201 256.018 45.8892C255.559 46.1965 255.099 46.4832 254.605 46.7525C254.4 46.8665 254.186 46.9667 253.974 47.0737C253.579 47.274 253.18 47.4674 252.773 47.6435C252.537 47.7437 252.295 47.8369 252.053 47.9302C251.651 48.0856 251.244 48.2272 250.827 48.3549C250.582 48.4309 250.34 48.5069 250.091 48.5725C249.644 48.6934 249.187 48.7935 248.728 48.8799C248.697 48.8799 248.669 48.8798 248.639 48.9006C248.941 54.9878 249.21 61.0785 249.445 67.1726C250.748 64.1572 252.585 61.4737 254.841 59.2867C257.098 57.0997 259.728 55.4553 262.569 54.4545C265.409 53.4536 268.402 53.1174 271.362 53.4665C274.322 53.8155 277.188 54.8424 279.784 56.4843L275.919 68.4159L283.869 59.8134C288.124 64.2087 290.659 70.3265 290.917 76.8249C291.018 79.1051 290.832 81.3899 290.363 83.6109C289.364 88.4172 287.107 92.7743 283.883 96.1171C280.66 99.4599 276.62 101.634 272.287 102.357C267.954 103.081 263.528 102.32 259.583 100.173C255.638 98.0272 252.357 94.5946 250.165 90.3209C250.165 90.9391 250.205 91.5607 250.22 92.1788C250.364 98.5746 250.545 106.531 247.716 113.638C245.801 118.456 242.715 122.369 239.666 125.874C237.683 128.157 235.627 130.363 233.518 132.501C231.445 135.638 228.739 138.174 225.624 139.898C222.161 142.905 218.576 145.721 214.868 148.345L212.615 149.982C210.534 151.436 208.401 152.928 206.308 154.472C206.676 154.43 207.041 154.385 207.415 154.368C212.048 154.123 216.63 155.545 220.499 158.427C224.368 161.309 227.324 165.503 228.94 170.402L215.278 182.935L230.294 179.008C230.29 183.174 229.349 187.271 227.559 190.916C225.769 194.561 223.188 197.636 220.057 199.852C216.926 202.068 213.348 203.353 209.657 203.589C205.966 203.824 202.283 203.001 198.95 201.196C199.287 201.673 199.628 202.146 199.965 202.619C200.636 203.562 201.304 204.498 201.957 205.427C210.844 218.111 213.32 230.157 208.916 239.339L203.565 236.079C207.856 227.142 201.42 215.704 197.182 209.675C196.542 208.763 195.886 207.844 195.224 206.912C189.545 198.969 183.11 189.949 183.272 178.894C183.502 162.249 197.872 152.21 209.406 144.156Z" fill="#F2F2F2"/>
<path d="M139.59 243C216.683 243 279.18 239.753 279.18 235.748C279.18 231.743 216.683 228.496 139.59 228.496C62.4966 228.496 0 231.743 0 235.748C0 239.753 62.4966 243 139.59 243Z" fill="#3F3D56"/>
<path d="M252.362 233.044C253.282 231.141 252.24 228.81 251.051 227.111C249.862 225.412 248.412 223.657 248.443 221.485C248.486 218.377 251.412 216.543 253.754 214.896C255.488 213.672 257.087 212.222 258.519 210.576C259.12 209.942 259.617 209.194 259.987 208.366C260.468 207.15 260.456 205.769 260.425 204.436C260.323 200.001 260.129 195.572 259.843 191.147" stroke="#3F3D56" stroke-width="4" stroke-miterlimit="10"/>
<path d="M264.29 190.912C264.255 190.101 264.041 189.312 263.666 188.618C263.291 187.924 262.768 187.348 262.144 186.941L261.182 189.089L261.21 186.492C260.552 186.269 259.856 186.229 259.181 186.373C258.505 186.517 257.871 186.841 257.33 187.319C256.79 187.797 256.359 188.414 256.074 189.119C255.789 189.823 255.659 190.595 255.693 191.368C255.747 192.65 256.251 193.856 257.093 194.72C257.51 195.148 257.998 195.479 258.529 195.694C259.06 195.909 259.623 196.005 260.186 195.975C260.75 195.945 261.302 195.79 261.813 195.519C262.323 195.249 262.781 194.868 263.161 194.397C263.54 193.927 263.834 193.378 264.025 192.78C264.216 192.182 264.301 191.547 264.274 190.912H264.29Z" fill="#57B793"/>
<path d="M256.619 223.72C256.169 224.705 255.431 225.487 254.531 225.933C253.63 226.379 252.62 226.463 251.671 226.17C250.722 225.877 249.891 225.225 249.318 224.324C248.745 223.423 248.463 222.327 248.522 221.22C248.58 220.114 248.974 219.063 249.638 218.245C250.302 217.426 251.195 216.89 252.168 216.725C253.141 216.561 254.135 216.778 254.983 217.341C255.83 217.904 256.481 218.778 256.824 219.817L254.14 222.279L257.094 221.506C257.094 222.276 256.932 223.035 256.619 223.72Z" fill="#57B793"/>
<path d="M254.495 214.295C253.931 214.326 253.367 214.231 252.835 214.015C252.304 213.799 251.815 213.467 251.398 213.038C250.98 212.609 250.642 212.092 250.403 211.515C250.163 210.938 250.027 210.314 250.003 209.678C249.968 208.92 250.095 208.163 250.373 207.471C250.631 206.823 251.011 206.247 251.488 205.783C251.964 205.319 252.525 204.978 253.131 204.784L253.11 206.784L254.084 204.608C255.224 204.548 256.339 205.001 257.182 205.867C258.026 206.733 258.53 207.941 258.583 209.226C258.636 210.51 258.235 211.766 257.466 212.717C256.698 213.667 255.626 214.235 254.486 214.295H254.495Z" fill="#57B793"/>
<path d="M264.936 206.452C263.798 206.513 262.685 206.062 261.843 205.198C261 204.334 260.497 203.128 260.443 201.846C260.39 200.563 260.79 199.31 261.557 198.36C262.323 197.411 263.393 196.843 264.531 196.783C265.336 196.738 266.135 196.951 266.836 197.398L266.076 199.746L267.639 198.054C268.477 198.918 268.978 200.121 269.03 201.4C269.05 201.848 269.012 202.297 268.92 202.733C268.705 203.757 268.2 204.674 267.481 205.346C266.762 206.017 265.869 206.405 264.936 206.452Z" fill="#57B793"/>
<path opacity="0.1" d="M263.71 192.19C262.717 192.314 261.752 192.663 260.756 192.732C259.76 192.801 258.666 192.532 258.034 191.658C257.694 191.188 257.526 190.594 257.238 190.083C256.966 189.606 256.595 189.211 256.156 188.933C255.896 189.545 255.754 190.21 255.737 190.888C255.721 191.565 255.831 192.239 256.061 192.865C256.29 193.492 256.634 194.056 257.07 194.523C257.506 194.99 258.024 195.349 258.59 195.576C259.157 195.802 259.759 195.892 260.359 195.84C260.959 195.787 261.542 195.593 262.07 195.271C262.599 194.948 263.061 194.503 263.428 193.966C263.794 193.429 264.056 192.811 264.197 192.152C264.032 192.159 263.869 192.173 263.71 192.19Z" fill="black"/>
<path opacity="0.1" d="M264.936 206.452C264.194 206.495 263.455 206.32 262.792 205.944C262.128 205.568 261.563 205.004 261.15 204.308C260.738 203.612 260.493 202.807 260.439 201.972C260.386 201.137 260.526 200.301 260.845 199.546C261.186 199.805 261.48 200.137 261.709 200.523C262.015 201.044 262.199 201.645 262.561 202.125C263.229 203.013 264.375 203.303 265.414 203.248C266.453 203.192 267.452 202.864 268.479 202.757C268.62 202.757 268.767 202.73 268.911 202.726C268.698 203.75 268.195 204.667 267.477 205.34C266.76 206.012 265.868 206.403 264.936 206.452Z" fill="black"/>
<path opacity="0.1" d="M254.495 214.295C253.931 214.326 253.367 214.23 252.835 214.015C252.304 213.799 251.815 213.467 251.398 213.038C250.98 212.609 250.642 212.092 250.403 211.515C250.163 210.938 250.027 210.314 250.003 209.678C249.968 208.92 250.095 208.163 250.373 207.471C250.73 207.734 251.041 208.067 251.293 208.455C251.627 208.987 251.835 209.598 252.212 210.089C252.938 211.001 254.158 211.322 255.258 211.291C256.358 211.26 257.348 210.969 258.409 210.88C258.147 211.833 257.631 212.673 256.931 213.284C256.23 213.895 255.38 214.248 254.495 214.295Z" fill="black"/>
<path opacity="0.1" d="M256.619 223.72C256.387 224.3 256.057 224.823 255.646 225.259C255.235 225.696 254.752 226.036 254.224 226.262C253.697 226.488 253.135 226.595 252.57 226.576C252.006 226.557 251.451 226.413 250.936 226.152C250.421 225.892 249.956 225.519 249.569 225.056C249.182 224.593 248.88 224.049 248.679 223.454C248.479 222.859 248.384 222.226 248.401 221.59C248.418 220.954 248.545 220.328 248.777 219.748C249.13 220.013 249.448 220.332 249.721 220.698C250.128 221.261 250.398 221.896 250.873 222.425C251.752 223.395 253.171 223.806 254.434 223.834C255.164 223.844 255.893 223.806 256.619 223.72Z" fill="black"/>
<path d="M245.877 230.851C245.877 230.851 249.27 230.733 250.293 229.912C251.317 229.09 255.503 228.109 255.77 229.428C256.036 230.747 260.872 235.99 257.038 236.01C253.205 236.031 248.133 235.32 247.112 234.629C246.092 233.938 245.877 230.851 245.877 230.851Z" fill="#656380"/>
<path opacity="0.2" d="M257.106 235.551C253.275 235.585 248.2 234.86 247.18 234.17C246.405 233.638 246.092 231.721 245.991 230.837H245.877C245.877 230.837 246.092 233.921 247.103 234.636C248.115 235.351 253.196 236.045 257.029 236.017C258.136 236.017 258.519 235.561 258.497 234.905C258.353 235.295 257.93 235.544 257.106 235.551Z" fill="black"/>
<path d="M59.578 222.39C57.3531 217.749 59.8844 212.064 62.7774 207.927C65.6703 203.79 69.2129 199.487 69.1363 194.213C69.026 186.637 61.8917 182.165 56.1917 178.148C51.962 175.167 48.0602 171.633 44.5679 167.619C43.1674 166.006 41.8098 164.286 40.9946 162.228C39.8178 159.265 39.8485 155.898 39.9251 152.652C40.1702 141.831 40.6442 131.031 41.347 120.252" stroke="#3F3D56" stroke-width="4" stroke-miterlimit="10"/>
<path d="M30.5076 119.661C30.5916 117.684 31.1148 115.763 32.0294 114.073C32.944 112.384 34.2205 110.98 35.7419 109.991L38.0893 115.223L38.0188 108.89C40.1514 108.182 42.4286 108.256 44.5214 109.101C46.6143 109.946 48.4146 111.519 49.6624 113.593C50.9102 115.667 51.5409 118.133 51.4635 120.637C51.386 123.141 50.6044 125.552 49.2316 127.523C47.8587 129.494 45.9655 130.922 43.8255 131.601C41.6855 132.28 39.4093 132.175 37.3256 131.301C35.242 130.427 33.4586 128.83 32.2331 126.74C31.0076 124.649 30.4034 122.174 30.5076 119.671V119.661Z" fill="#57B793"/>
<path d="M49.2072 199.628C50.2615 201.944 51.9648 203.802 54.0525 204.914C56.1402 206.026 58.4954 206.331 60.7522 205.779C63.0091 205.228 65.0412 203.852 66.5328 201.866C68.0245 199.879 68.8922 197.393 69.0011 194.794C69.0743 193.16 68.8415 191.526 68.3177 190C67.5521 187.762 66.2001 185.839 64.4414 184.488C62.6828 183.136 60.6007 182.42 58.4721 182.433C56.3434 182.447 54.2688 183.191 52.5241 184.565C50.7795 185.94 49.4473 187.88 48.7047 190.128L55.2536 196.13L48.0488 194.241C48.0459 196.116 48.4432 197.963 49.2072 199.628Z" fill="#57B793"/>
<path d="M54.3833 176.691C56.9544 176.823 59.4788 175.886 61.4761 174.057C63.4734 172.227 64.8041 169.635 65.2148 166.771C65.6255 163.908 65.0876 160.975 63.7034 158.53C62.3192 156.085 60.1855 154.299 57.7084 153.511L57.7635 158.377L55.4038 153.083H55.3763C52.5978 152.937 49.8817 154.041 47.8253 156.152C45.769 158.262 44.5409 161.207 44.4113 164.338C44.2817 167.469 45.2611 170.53 47.1341 172.847C49.0071 175.164 51.6202 176.548 54.3987 176.694L54.3833 176.691Z" fill="#57B793"/>
<path d="M28.9292 157.604C30.5525 157.693 32.172 157.356 33.6599 156.619C35.1477 155.881 36.4632 154.765 37.5024 153.357C38.5417 151.948 39.2762 150.287 39.6481 148.504C40.02 146.721 40.0191 144.865 39.6454 143.083C39.2717 141.301 38.5355 139.64 37.4949 138.234C36.4542 136.827 35.1377 135.712 33.6491 134.976C32.1605 134.241 30.5407 133.906 28.9174 133.997C27.2941 134.088 25.7119 134.604 24.2956 135.502L26.1343 141.224L22.3373 137.09C21.3223 138.131 20.4994 139.388 19.9157 140.787C19.332 142.187 18.999 143.703 18.9357 145.247C18.887 146.341 18.9768 147.436 19.2023 148.501C19.7235 151.004 20.9554 153.248 22.7109 154.891C24.4664 156.533 26.6496 157.486 28.9292 157.604Z" fill="#57B793"/>
<path opacity="0.1" d="M31.9175 122.811C34.3385 123.111 36.692 123.957 39.1192 124.126C41.5463 124.296 44.2155 123.643 45.7508 121.516C46.5783 120.369 46.992 118.919 47.6907 117.668C48.3528 116.504 49.2603 115.541 50.3323 114.868C50.9999 116.365 51.3772 118.006 51.4392 119.68C51.5012 121.354 51.2465 123.025 50.6919 124.58C50.1373 126.134 49.2956 127.539 48.2226 128.699C47.1497 129.86 45.8699 130.749 44.4684 131.31C43.0669 131.87 41.5756 132.088 40.0936 131.95C38.6115 131.811 37.1726 131.319 35.8723 130.505C34.572 129.692 33.4401 128.577 32.5517 127.233C31.6632 125.889 31.0386 124.347 30.7192 122.71C31.1268 122.731 31.5252 122.762 31.9175 122.811Z" fill="black"/>
<path opacity="0.1" d="M28.9295 157.604C30.7364 157.698 32.5342 157.264 34.1484 156.344C35.7626 155.424 37.1383 154.049 38.1421 152.353C39.1458 150.657 39.7435 148.698 39.8771 146.665C40.0107 144.632 39.6757 142.595 38.9045 140.751C38.072 141.382 37.356 142.189 36.7961 143.127C36.0484 144.398 35.5979 145.866 34.7184 147.033C33.085 149.195 30.2962 149.903 27.7649 149.775C25.2336 149.647 22.7912 148.832 20.2721 148.573C19.9228 148.539 19.5673 148.511 19.2148 148.501C19.7355 151.002 20.9655 153.244 22.7186 154.887C24.4716 156.529 26.652 157.483 28.9295 157.604Z" fill="black"/>
<path opacity="0.1" d="M54.3834 176.691C56.1728 176.786 57.9538 176.362 59.5566 175.461C61.1594 174.559 62.5305 173.21 63.5392 171.542C64.5478 169.874 65.1603 167.942 65.3182 165.931C65.4761 163.92 65.1742 161.898 64.4412 160.056C63.5778 160.702 62.8268 161.521 62.2256 162.473C61.4104 163.768 60.9017 165.26 59.9486 166.455C58.1804 168.675 55.2078 169.459 52.5263 169.387C49.9306 169.325 47.43 168.606 44.8496 168.382C45.4884 170.703 46.7464 172.746 48.4523 174.233C50.1582 175.719 52.2292 176.578 54.3834 176.691Z" fill="black"/>
<path opacity="0.1" d="M49.2075 199.628C50.2618 201.944 51.965 203.802 54.0527 204.914C56.1404 206.026 58.4957 206.33 60.7525 205.779C63.0093 205.228 65.0414 203.852 66.5331 201.866C68.0248 199.879 68.8925 197.393 69.0014 194.794C69.0746 193.16 68.8418 191.526 68.318 190C67.4553 190.639 66.6808 191.417 66.0196 192.311C65.0236 193.692 64.3648 195.232 63.2125 196.51C61.0673 198.879 57.6074 199.86 54.5276 199.963C52.7499 199.97 50.9734 199.859 49.2075 199.628Z" fill="black"/>
<path d="M132.15 229.29L91.6976 238.614L90.7782 238.511L55.2295 234.47V183.705L98.746 175.417L130.311 179.561L130.32 179.785L130.323 179.896L132.15 229.29Z" fill="#6C63FF"/>
<path opacity="0.1" d="M132.149 229.29L91.6972 238.614L90.7778 238.511V186.468L130.32 179.785L132.149 229.29Z" fill="black"/>
<path opacity="0.05" d="M130.323 179.896L130.311 179.906L90.7782 186.467L55.2295 183.705L98.746 175.417L130.311 179.561L130.32 179.785L130.323 179.896Z" fill="black"/>
<path d="M176.585 231.362L136.133 240.686L135.214 240.583L99.665 236.542V185.777L143.182 177.489L174.746 181.633L174.756 181.857L174.759 181.968L176.585 231.362Z" fill="#3F3D56"/>
<path opacity="0.1" d="M176.585 231.362L136.133 240.686L135.214 240.583V188.54L174.756 181.857L176.585 231.362Z" fill="black"/>
<path opacity="0.05" d="M174.759 181.968L174.746 181.978L135.214 188.54L99.665 185.777L143.182 177.489L174.746 181.633L174.756 181.857L174.759 181.968Z" fill="black"/>
<path d="M148.698 181.633L108.246 190.957L107.327 190.853L71.7778 186.813V136.048L115.294 127.759L146.859 131.903L146.868 132.128L146.871 132.238L148.698 181.633Z" fill="#3F3D56"/>
<path opacity="0.1" d="M148.698 181.633L108.246 190.957L107.327 190.853V138.81L146.868 132.128L148.698 181.633Z" fill="black"/>
<path opacity="0.05" d="M146.871 132.238L146.859 132.249L107.327 138.81L71.7778 136.048L115.294 127.759L146.859 131.903L146.868 132.128L146.871 132.238Z" fill="black"/>
<path d="M171.682 183.76L150.57 188.629L150.089 188.574L131.537 186.464V159.969L154.248 155.642L170.723 157.808L170.729 157.925V157.98L171.682 183.76Z" fill="#3F3D56"/>
<path opacity="0.1" d="M171.682 183.76L150.57 188.629L150.089 188.574V161.413L170.729 157.925L171.682 183.76Z" fill="black"/>
<path opacity="0.05" d="M170.729 157.98L170.723 157.987L150.089 161.413L131.537 159.969L154.248 155.642L170.723 157.808L170.729 157.925V157.98Z" fill="black"/>
<path d="M114.988 132.304L93.8762 137.17L93.3951 137.118L74.8423 135.008V108.513L97.5536 104.186L114.029 106.352L114.035 106.469V106.524L114.988 132.304Z" fill="#3F3D56"/>
<path opacity="0.1" d="M114.988 132.304L93.8761 137.17L93.395 137.118V109.957L114.035 106.469L114.988 132.304Z" fill="black"/>
<path opacity="0.05" d="M114.035 106.524L114.029 106.531L93.3951 109.957L74.8423 108.513L97.5536 104.186L114.029 106.352L114.035 106.469V106.524Z" fill="black"/>
<path d="M152.069 131.268L130.957 136.134L130.476 136.082L111.923 133.972V107.477L134.635 103.15L151.11 105.316L151.116 105.433V105.488L152.069 131.268Z" fill="#6C63FF"/>
<path opacity="0.1" d="M152.069 131.268L130.957 136.134L130.476 136.082V108.921L151.116 105.433L152.069 131.268Z" fill="black"/>
<path opacity="0.05" d="M151.116 105.488L151.11 105.495L130.476 108.921L111.923 107.477L134.635 103.15L151.11 105.316L151.116 105.433V105.488Z" fill="black"/>
<path d="M163.101 104.677L141.989 109.543L141.508 109.491L122.956 107.381V80.886L145.667 76.5589L162.142 78.7242L162.148 78.8416V78.8969L163.101 104.677Z" fill="#3F3D56"/>
<path opacity="0.1" d="M163.101 104.677L141.989 109.543L141.508 109.491V82.3296L162.148 78.8416L163.101 104.677Z" fill="black"/>
<path opacity="0.05" d="M162.148 78.8969L162.142 78.9038L141.508 82.3296L122.956 80.886L145.667 76.5589L162.142 78.7242L162.148 78.8416V78.8969Z" fill="black"/>
<path d="M177.48 50.5132C177.256 52.7579 175.736 54.5675 175.172 56.7294C174.326 59.9928 175.785 63.4981 177.795 66.0536C179.416 68.0841 181.377 69.7322 183.567 70.9024C185.756 72.0726 188.13 72.7416 190.55 72.8706C191.261 72.9396 191.977 72.8516 192.659 72.6116C193.265 72.3334 193.812 71.9118 194.261 71.3753C195.769 69.6659 196.581 67.3003 196.903 64.914C197.225 62.5276 197.102 60.0999 196.976 57.6929C196.976 57.1947 196.895 56.7008 196.737 56.2355C196.532 55.793 196.25 55.4018 195.907 55.0855C194.82 53.9599 193.622 52.9785 192.337 52.1605C191.785 51.8151 191.194 51.4698 190.841 50.8724C190.599 50.3966 190.442 49.8722 190.378 49.3287L189.983 47.0632C189.913 46.41 189.715 45.7825 189.404 45.226C188.708 44.1693 187.375 44.0242 186.208 43.9724L181.917 43.7825C180.584 43.7238 178.831 43.2921 177.529 43.5891C176.303 43.8619 176.717 45.1259 176.937 46.2724C177.257 47.6591 177.439 49.0814 177.48 50.5132Z" fill="#FFC0C6"/>
<path opacity="0.1" d="M177.48 50.5132C177.256 52.7579 175.736 54.5675 175.172 56.7294C174.326 59.9928 175.785 63.4981 177.795 66.0536C179.416 68.0841 181.377 69.7322 183.567 70.9024C185.756 72.0726 188.13 72.7416 190.55 72.8706C191.261 72.9396 191.977 72.8516 192.659 72.6116C193.265 72.3334 193.812 71.9118 194.261 71.3753C195.769 69.6659 196.581 67.3003 196.903 64.914C197.225 62.5276 197.102 60.0999 196.976 57.6929C196.976 57.1947 196.895 56.7008 196.737 56.2355C196.532 55.793 196.25 55.4018 195.907 55.0855C194.82 53.9599 193.622 52.9785 192.337 52.1605C191.785 51.8151 191.194 51.4698 190.841 50.8724C190.599 50.3966 190.442 49.8722 190.378 49.3287L189.983 47.0632C189.913 46.41 189.715 45.7825 189.404 45.226C188.708 44.1693 187.375 44.0242 186.208 43.9724L181.917 43.7825C180.584 43.7238 178.831 43.2921 177.529 43.5891C176.303 43.8619 176.717 45.1259 176.937 46.2724C177.257 47.6591 177.439 49.0814 177.48 50.5132Z" fill="black"/>
<path d="M204.727 151.616L202.907 174.104C202.432 180.003 201.947 185.925 201.016 191.748C200.709 193.754 200.317 195.75 199.87 197.729C198.625 203.223 196.82 208.594 196.238 214.226C196.22 214.388 196.204 214.571 196.189 214.72C196.07 215.963 195.965 217.22 195.576 218.381C195.27 219.24 194.838 220.024 194.522 220.874C193.909 222.573 193.811 224.452 193.734 226.292C191.525 224.887 189.106 223.951 186.597 223.53C185.371 223.326 184.038 223.184 183.226 222.148C182.307 221.022 182.414 219.299 182.567 217.787C183.049 213.09 183.53 208.396 184.008 203.703C184.167 201.685 184.474 199.684 184.927 197.722C185.092 197.069 185.292 196.427 185.494 195.785C185.773 194.901 186.055 194.017 186.266 193.108C186.559 191.649 186.762 190.169 186.873 188.678C187.366 183.953 187.961 179.239 188.482 174.519L188.509 174.27C189.291 167.115 189.885 159.924 189.714 152.717C189.689 151.65 189.649 150.583 189.588 149.512C189.502 147.962 189.377 147.14 190.507 146.17C191.767 145.099 193.425 144.35 194.865 143.649C195.641 143.269 204.178 139.85 204.365 140.603C204.762 142.202 204.968 143.853 204.978 145.513C204.996 147.551 204.912 149.588 204.727 151.616Z" fill="#605D82"/>
<path opacity="0.1" d="M201.016 191.748C200.71 193.754 200.317 195.75 199.87 197.729C198.626 203.223 196.821 208.594 196.238 214.226C196.22 214.388 196.205 214.571 196.189 214.72C192.383 208.594 189.178 202.004 185.463 195.812C185.742 194.928 186.024 194.044 186.236 193.136C186.54 191.669 186.753 190.179 186.873 188.678C187.366 183.953 187.961 179.239 188.482 174.519L188.51 174.27C188.725 175.272 189.033 176.245 189.429 177.174C191.923 182.886 197.85 185.773 200.749 191.24C200.845 191.41 200.934 191.58 201.016 191.748Z" fill="black"/>
<path d="M170.131 141.528C170.257 146.107 170.907 150.649 171.556 155.173L172.895 164.497C173.628 169.608 174.394 174.819 176.539 179.395C178.145 182.821 180.456 185.742 182.549 188.812C187.691 196.362 191.556 204.916 196.431 212.686C197.85 214.944 199.876 217.389 202.294 216.916C203.881 216.609 205.033 215.117 206.278 213.971C207.749 212.617 209.52 211.626 210.678 209.927C211.837 208.228 212.063 205.41 210.494 204.201C209.958 203.79 209.305 203.634 208.699 203.372C206.268 202.336 204.693 199.656 203.694 196.949C202.695 194.241 202.085 191.337 200.752 188.819C197.853 183.353 191.923 180.465 189.429 174.75C188.031 171.552 187.896 167.843 187.792 164.297L187.519 155.211C187.489 154.216 187.467 153.183 187.826 152.275C188.779 149.858 191.66 149.63 193.995 149.323C196.643 148.974 199.209 148.062 201.555 146.636C202.9 145.817 204.212 144.774 204.926 143.255C205.582 141.873 205.671 140.247 205.747 138.679L206.556 122.21C206.627 120.794 206.688 119.326 206.25 118C205.138 114.664 201.399 113.573 198.239 113.732C192.361 114.029 186.937 116.878 181.384 118.805C180.008 119.281 178.626 119.709 177.207 120.031C175.981 120.31 174.449 120.196 173.272 120.645C171.164 121.446 171.216 126.647 170.919 128.802C170.305 133.007 170.042 137.268 170.131 141.528Z" fill="#605D82"/>
<path d="M201.497 217.614C202.015 218.204 202.183 219.068 202.318 219.883C203.067 224.406 203.457 228.995 203.483 233.596C203.449 234.026 203.525 234.457 203.7 234.84C203.847 235.066 204.045 235.245 204.274 235.358C205.772 236.162 207.51 235.04 208.76 233.807C211.074 231.524 213.032 228.458 213.164 224.994C213.197 224.103 213.109 223.202 213.246 222.321C213.449 221.016 214.126 219.879 214.721 218.74C215.738 216.797 216.56 214.733 217.172 212.586C217.399 211.778 217.552 210.762 216.988 210.199C216.791 210.023 216.565 209.89 216.323 209.809L209.551 206.977C208.962 206.732 207.504 210.956 207.274 211.418C206.707 212.548 206.143 213.187 205.006 213.449C203.869 213.712 202.465 213.332 201.381 213.984C199.542 215.086 200.458 216.436 201.497 217.614Z" fill="#535070"/>
<path d="M191.053 220.221C190.928 219.939 190.752 219.689 190.538 219.486C190.225 219.261 189.869 219.125 189.499 219.089C188.212 218.84 186.686 218.678 185.794 219.758C184.961 220.77 185.105 222.418 184.409 223.557C184.189 223.903 183.888 224.213 183.698 224.593C183.462 225.175 183.357 225.813 183.392 226.451C183.355 228.209 183.318 229.974 183.429 231.728C183.517 233.199 183.735 234.743 184.553 235.896C185.865 237.747 188.231 238.013 190.327 238.131L192.028 238.231C192.495 238.293 192.969 238.243 193.419 238.086C193.698 237.941 193.948 237.735 194.154 237.479C194.36 237.224 194.519 236.924 194.62 236.597C195.506 234.118 194.105 231.448 193.241 228.962C192.245 226.099 192.423 222.925 191.053 220.221Z" fill="#535070"/>
<path d="M176.99 37.8564C176.968 37.605 177.001 37.3515 177.085 37.1174C177.333 36.6235 177.983 36.772 178.473 36.8964C180.444 37.4558 182.521 36.9482 184.553 37.0794C186.585 37.2106 188.871 38.3537 189.279 40.5984C190.753 39.4229 192.023 37.9527 193.027 36.2609C193.591 35.3112 194.081 34.2234 194.004 33.0838C193.894 31.4399 192.671 30.2105 191.553 29.1676L188.182 26.0595C187.738 25.6005 187.225 25.2334 186.668 24.9751C185.889 24.6747 185.037 24.8197 184.216 24.8197C181.764 24.8197 179.135 23.5592 176.95 24.8197C176.031 25.3481 175.347 26.2564 174.685 27.1404L171.673 31.1602C171.445 31.4165 171.278 31.7337 171.189 32.0823C171.103 32.5727 171.327 33.0562 171.406 33.55C171.547 34.4479 171.204 35.4079 171.468 36.2713C171.906 37.701 173.45 37.9048 174.394 38.7267C174.744 39.0306 175.295 40.07 175.715 40.0562C176.454 40.039 176.968 38.5195 176.99 37.8564Z" fill="#3F3D56"/>
<path d="M182.102 49.712C187.433 49.712 191.755 44.8416 191.755 38.8337C191.755 32.8258 187.433 27.9554 182.102 27.9554C176.77 27.9554 172.448 32.8258 172.448 38.8337C172.448 44.8416 176.77 49.712 182.102 49.712Z" fill="#FFC0C6"/>
<path d="M184.363 62.6382C184.036 61.5838 183.42 60.6738 182.605 60.0394C181.789 59.4051 180.815 59.0792 179.825 59.1088C179.54 59.1699 179.246 59.1275 178.985 58.9879C178.837 58.8604 178.718 58.6946 178.639 58.5044C178.053 57.3138 177.582 56.0567 177.232 54.754C177.079 54.1773 176.867 53.497 176.349 53.3485C175.933 53.2276 175.507 53.5315 175.228 53.901C174.981 54.2975 174.712 54.6769 174.425 55.0372C173.199 56.2597 171.054 55.1442 169.77 56.2666C169.558 56.4496 169.384 56.6845 169.157 56.8537C168.936 57.0052 168.698 57.1214 168.449 57.199C165.956 58.1128 163.513 59.1886 161.131 60.4211C161.989 66.2366 162.865 72.1627 164.876 77.6018C165.832 80.1919 166.914 82.7302 167.68 85.3997C169.378 91.3154 169.451 97.6455 169.473 103.865C169.473 108.12 169.473 112.464 168.247 116.491C167.971 117.403 167.634 118.307 167.557 119.254C167.481 120.2 167.732 121.27 168.421 121.837C168.821 122.133 169.278 122.315 169.754 122.365C171.872 122.71 174.005 122.082 176.089 121.536C181.676 120.079 187.376 119.243 193.06 118.428L202.591 117.047C203.275 116.993 203.944 116.797 204.565 116.47C206.308 115.396 206.474 112.44 205.389 110.561C204.871 109.66 204.139 108.921 203.7 107.968C203.262 107.015 203.229 105.675 203.979 105.015C205.512 103.668 205.052 101.171 205.125 98.9889C205.33 92.8832 205.302 86.7822 205.043 80.6857C204.965 79.4215 204.946 78.1534 204.988 76.887C205.095 74.739 205.567 72.6358 206.039 70.5465L208.935 57.6998C208.178 56.3529 206.728 55.4965 205.358 55.1097C203.989 54.7229 202.557 54.609 201.206 54.1358C198.448 53.1689 195.972 50.7169 193.082 50.9449C192.863 50.9493 192.647 51.0082 192.451 51.1175C191.801 51.5354 191.902 52.5922 191.862 53.4348C191.77 55.3031 190.55 56.8606 189.208 57.9553C187.866 59.0501 186.328 59.8443 185.093 61.091C184.878 61.2732 184.702 61.5062 184.576 61.7735C184.45 62.0407 184.377 62.3359 184.363 62.6382Z" fill="#3F3D56"/>
<path d="M146.114 74.8253C145.475 75.2937 144.795 75.6882 144.086 76.0029C143.411 76.3034 142.691 76.5416 142.14 77.0666C141.866 77.3336 141.637 77.6527 141.462 78.0093C141.136 78.6624 140.971 79.4022 140.984 80.1516C140.998 80.901 141.19 81.6326 141.54 82.27C141.89 82.9075 142.385 83.4274 142.974 83.7756C143.563 84.1238 144.224 84.2875 144.888 84.2497C145.774 84.1979 146.611 83.7938 147.423 83.3967L154.232 80.0572C155.384 79.4943 156.629 78.8382 157.174 77.5604C157.237 77.4408 157.261 77.3004 157.242 77.1632C157.189 77.0127 157.088 76.8897 156.96 76.8179C155.425 75.6929 154.083 74.2657 152.997 72.6047C152.718 72.1765 152.384 71.1681 151.98 70.9091C150.539 70.0078 147.27 73.9827 146.114 74.8253Z" fill="#FFC0C6"/>
<path d="M218.903 72.1143L221.413 75.3467C221.953 76.0374 222.492 76.7281 222.982 77.4741C224.189 79.3467 225.156 81.4008 225.857 83.5763C226.402 85.189 226.856 86.9088 226.666 88.6217C226.538 89.4999 226.328 90.3601 226.038 91.1876C225.578 92.7784 225.007 94.3258 224.331 95.8152C223.766 96.9453 223.128 98.0269 222.421 99.051C220.477 101.954 218.35 104.695 216.056 107.253C215.198 108.209 214.831 109.76 214.466 111.052C213.776 113.438 212.137 115.299 210.552 117.061C210.043 117.668 209.479 118.214 208.87 118.691C207.958 119.354 206.891 119.695 205.805 119.671C205.332 119.674 204.863 119.565 204.429 119.35C203.345 118.77 202.793 117.358 202.68 116.011C202.579 114.787 202.761 113.555 203.207 112.433C204.647 108.838 208.346 107.281 210.96 104.656C212.492 103.119 213.666 101.185 214.824 99.2755C215.609 98.0818 216.264 96.7868 216.777 95.418C217.359 93.6602 217.132 91.5813 217.644 89.7993C217.858 89.043 218.257 88.3627 218.474 87.6133C218.692 86.8639 218.765 85.9764 218.358 85.3306C218.052 84.9178 217.662 84.5953 217.221 84.3913C215.551 83.4381 213.681 82.2087 213.363 80.1263C213.235 78.9731 213.502 77.8084 214.11 76.8697C214.715 75.943 215.423 75.1074 216.216 74.3832C216.942 73.6442 218.171 72.8258 218.903 72.1143Z" fill="#FFC0C6"/>
<path d="M144.503 79.3355C144.061 78.3271 143.507 77.298 142.612 76.7972C142.176 76.5855 141.707 76.4763 141.233 76.4763C140.758 76.4763 140.289 76.5855 139.854 76.7972C138.986 77.2197 138.174 77.7727 137.439 78.441L135.275 80.2403C134.785 80.603 134.351 81.0546 133.991 81.5767C133.648 82.2103 133.421 82.9148 133.323 83.6488C133.017 85.3306 132.768 87.0608 132.983 88.7633C133.326 91.526 134.797 93.9158 136.415 96.0155C137.427 97.3209 138.677 98.6401 140.215 98.6988C140.88 98.723 141.619 98.426 141.895 97.7456C141.991 97.4753 142.042 97.1873 142.045 96.8961C142.21 93.8295 141.236 90.8353 140.102 88.0415C139.795 87.2818 139.464 86.4944 139.489 85.6621C139.48 85.5208 139.512 85.38 139.581 85.2615C139.678 85.1467 139.808 85.0744 139.949 85.0578C141.502 84.7124 144.181 86.0731 145.269 84.1288C145.974 82.8441 145.005 80.4786 144.503 79.3355Z" fill="#FFC0C6"/>
<path d="M176.481 34.4341C176.462 34.1825 176.495 33.9293 176.579 33.695C176.827 33.1978 177.477 33.3497 177.967 33.474C179.938 34.0335 182.015 33.5258 184.047 33.6571C186.079 33.7883 188.362 34.9314 188.773 37.1761C190.245 35.9986 191.515 34.5288 192.521 32.8386C193.085 31.8855 193.575 30.7976 193.498 29.658C193.388 28.0142 192.162 26.7847 191.047 25.7453L187.676 22.6372C187.233 22.1782 186.721 21.8111 186.165 21.5528C185.383 21.2524 184.534 21.3974 183.713 21.3974C181.262 21.3974 178.632 20.1369 176.447 21.3974C175.528 21.9258 174.844 22.834 174.182 23.7181L171.167 27.7379C170.94 27.9947 170.775 28.3119 170.686 28.66C170.6 29.1503 170.824 29.6338 170.903 30.1277C171.044 31.0255 170.701 31.9856 170.965 32.8455C171.403 34.2787 172.947 34.4824 173.891 35.3043C174.241 35.6082 174.792 36.6477 175.212 36.6339C175.938 36.6166 176.453 35.0971 176.481 34.4341Z" fill="#3F3D56"/>
<path d="M155.979 64.244C155.59 64.5287 155.248 64.8874 154.968 65.3042C154.615 65.9085 154.542 66.6856 154.238 67.3072C153.589 68.6678 152.066 69.1548 151.119 70.2702C150.965 70.4227 150.858 70.6256 150.812 70.8504C150.806 71.1541 150.897 71.4503 151.067 71.6861L155.645 79.7947C157.177 79.9467 158.63 78.8692 160.156 79.0143C160.723 79.0661 161.308 79.2871 161.854 79.0972C162.244 78.9014 162.609 78.6495 162.942 78.3478C163.861 77.6985 165.062 77.6226 165.825 76.7696C166.589 75.9166 166.653 74.663 166.644 73.4992C166.657 72.4891 166.566 71.4807 166.371 70.4947C165.697 67.3866 163.585 64.9899 162.261 62.2341C161.615 60.8907 161.265 60.1068 159.902 61.0289C158.538 61.9509 157.269 63.1803 155.979 64.244Z" fill="#3F3D56"/>
<path d="M211.573 60.1448C212.434 60.7744 213.21 61.5396 213.878 62.4171C214.573 63.429 214.969 64.6722 215.64 65.7083C216.311 66.7443 217.172 67.4902 217.908 68.4157C219.026 69.8178 219.783 71.5238 220.525 73.2194C218.709 75.8813 216.731 78.397 214.604 80.7479C214.367 81.0623 214.054 81.2926 213.703 81.411C213.465 81.4398 213.225 81.4015 213.003 81.2996C212.782 81.1978 212.586 81.0355 212.434 80.8273C212.103 80.4405 211.871 79.9571 211.555 79.553C210.811 78.6887 209.82 78.1492 208.757 78.0301C207.703 77.9143 206.642 77.897 205.585 77.9783C205.353 78.0093 205.118 77.9649 204.908 77.8505C204.751 77.7294 204.625 77.5654 204.54 77.3739C203.314 74.998 203.697 72.0142 204.136 69.2998L205.138 63.0837C205.284 61.8968 205.565 60.7362 205.974 59.6302C206.354 58.7151 207.2 57.161 208.248 57.4373C209.296 57.7136 210.688 59.4265 211.573 60.1448Z" fill="#3F3D56"/>
<path d="M124.182 105.713L103.07 110.579L102.589 110.527L84.0361 108.417V81.9221L106.747 77.5949L123.222 79.7602L123.229 79.8776V79.9329L124.182 105.713Z" fill="#6C63FF"/>
<path opacity="0.1" d="M124.182 105.713L103.07 110.579L102.589 110.527V83.3656L123.229 79.8776L124.182 105.713Z" fill="black"/>
<path opacity="0.05" d="M123.229 79.9329L123.222 79.9398L102.589 83.3656L84.0361 81.9221L106.747 77.5949L123.222 79.7602L123.229 79.8776V79.9329Z" fill="black"/>
<path d="M135.214 79.4667L114.102 84.336L113.621 84.2808L95.0684 82.1707V55.6761L117.78 51.3489L134.255 53.5142L134.261 53.6316V53.6869L135.214 79.4667Z" fill="#3F3D56"/>
<path opacity="0.1" d="M135.214 79.4667L114.102 84.336L113.621 84.2807V57.1196L134.261 53.6316L135.214 79.4667Z" fill="black"/>
<path opacity="0.05" d="M134.261 53.6869L134.255 53.6938L113.621 57.1196L95.0684 55.6761L117.78 51.3489L134.255 53.5142L134.261 53.6316V53.6869Z" fill="black"/>
</g>
<defs>
<clipPath id="clip0">
<rect width="291" height="243" fill="white"/>
</clipPath>
</defs>
</svg>
