<?xml version="1.0" encoding="UTF-8"?>
<svg width="375pt" height="375pt" version="1.2" viewBox="0 0 375 375" xmlns="http://www.w3.org/2000/svg" zoomAndPan="magnify">
<defs>
<clipPath id="r" xmlId="clip1">
<path d="m110 135h9v5h-9z"/>
</clipPath>
<clipPath id="h" xmlId="clip2">
<path d="m16.113 145.96 107.41-30.828 26.484 92.273-107.41 30.828z"/>
</clipPath>
<clipPath id="g" xmlId="clip3">
<path d="m16.113 145.96 107.41-30.828 26.484 92.273-107.41 30.828z"/>
</clipPath>
<clipPath id="f" xmlId="clip4">
<path d="m17 132h115v83h-115z"/>
</clipPath>
<clipPath id="e" xmlId="clip5">
<path d="m16.113 145.96 107.41-30.828 26.484 92.273-107.41 30.828z"/>
</clipPath>
<clipPath id="d" xmlId="clip6">
<path d="m16.113 145.96 107.41-30.828 26.484 92.273-107.41 30.828z"/>
</clipPath>
<clipPath id="c" xmlId="clip7">
<path d="m16.172 145.95 107.3-30.797 22.195 77.324-107.3 30.801z"/>
</clipPath>
<clipPath id="b" xmlId="clip8">
<path d="m16.172 145.95 107.29-30.793 22.195 77.324-107.29 30.797z"/>
</clipPath>
<clipPath id="a" xmlId="clip9">
<path d="m72 214h14v14h-14z"/>
</clipPath>
<clipPath id="q" xmlId="clip10">
<path d="m16.113 145.96 107.41-30.828 26.484 92.273-107.41 30.828z"/>
</clipPath>
<clipPath id="p" xmlId="clip11">
<path d="m16.113 145.96 107.41-30.828 26.484 92.273-107.41 30.828z"/>
</clipPath>
<clipPath id="o" xmlId="clip12">
<path d="m70.918 216.03 12.93-3.7109 3.8047 13.266-12.926 3.707z"/>
</clipPath>
<clipPath id="n" xmlId="clip13">
<path d="m70.918 216.03 12.93-3.7109 3.7305 12.996-12.93 3.7109z"/>
</clipPath>
<clipPath id="m" xmlId="clip14">
<path d="m114 202h15v14h-15z"/>
</clipPath>
<clipPath id="l" xmlId="clip15">
<path d="m16.113 145.96 107.41-30.828 26.484 92.273-107.41 30.828z"/>
</clipPath>
<clipPath id="k" xmlId="clip16">
<path d="m16.113 145.96 107.41-30.828 26.484 92.273-107.41 30.828z"/>
</clipPath>
<clipPath id="j" xmlId="clip17">
<path d="m112.93 203.97 13.25-3.8008 3.8086 13.262-13.25 3.8047z"/>
</clipPath>
<clipPath id="i" xmlId="clip18">
<path d="m112.93 203.97 13.25-3.8008 3.7305 12.996-13.25 3.8047z"/>
</clipPath>
</defs>
<g xmlId="surface1">
<g clip-path="url(#r)">
<g clip-path="url(#h)">
<g clip-path="url(#g)">
<path d="m112.95 139.8c1.4688-0.41797 2.9297-0.83984 4.3984-1.2617 2.082-0.59766 1.1523-3.832-0.92969-3.2344-1.4648 0.42188-2.9297 0.83984-4.3945 1.2617-2.0859 0.59766-1.1562 3.832 0.92578 3.2344" fill="#0049ac"/>
</g>
</g>
</g>
<g clip-path="url(#f)">
<g clip-path="url(#e)">
<g clip-path="url(#d)">
<g clip-path="url(#c)">
<g clip-path="url(#b)">
<path d="m128.12 175.33c-5.4883 2.332-10.973 4.668-16.461 7-1.6914-5.8867-3.3789-11.77-5.0703-17.656 5.3281-1.5273 10.656-3.0586 15.98-4.5859 1.4922-0.42969 2.9883-0.85938 4.4805-1.2891 0.35547 5.5117 0.71484 11.02 1.0703 16.531zm-61.668 26.227c-3.2227-7.5273-6.4492-15.059-9.6719-22.586 4.2188-1.2109 8.4375-2.4219 12.652-3.6328 2.0859-0.59766 1.1562-3.832-0.92969-3.2344-4.3516 1.25-8.7031 2.5-13.059 3.75-2.4805-5.793-4.9609-11.582-7.4414-17.375-0.003906-0.007813-0.007812-0.019531-0.011718-0.03125 8.1328-2.332 16.262-4.668 24.395-7 1.7266 6.0156 3.457 12.035 5.1836 18.055-1.4102 0.40234-2.8203 0.80859-4.2305 1.2148-2.082 0.59766-1.1562 3.832 0.92969 3.2344 1.4102-0.40625 2.8203-0.80859 4.2305-1.2148 2.0195 7.0391 4.0391 14.078 6.0586 21.121-0.17969 0.074219-0.35938 0.15234-0.53906 0.22656-5.8555 2.4922-11.711 4.9844-17.566 7.4727zm36.906-35.957c1.7266 6.0195 3.4531 12.039 5.1836 18.055-6.957 2.9609-13.91 5.918-20.867 8.875-1.9805-6.9062-3.9648-13.812-5.9453-20.719 7.2109-2.0703 14.418-4.1406 21.629-6.2109zm-6.1133-21.289c1.7305 6.0195 3.457 12.035 5.1836 18.055-7.2109 2.0703-14.418 4.1406-21.629 6.207-1.7266-6.0156-3.4531-12.035-5.1836-18.055 6.2227-1.7852 12.441-3.5703 18.664-5.3555 0.98828-0.28516 1.9766-0.56641 2.9648-0.85156zm-64.547 4.5625c-1.6016 0.45703-3.1992 0.91797-4.8008 1.3789-1.457 0.41797-2.918 0.83594-4.375 1.2539-1.5156 0.43359-2.3047-0.19531-2.7305-1.6914-0.44531-1.5469 1.0703-1.957 2.1641-2.2695 1.6016-0.45703 3.2031-0.91797 4.8008-1.3789 1.4609-0.41797 2.918-0.83594 4.3789-1.2539 1.5117-0.43359 2.3008 0.19531 2.7305 1.6914 0.33984 1.5742-1.0195 1.9414-2.168 2.2695zm93.965-16.508c-1.8281 0.52344-3.6562 1.0508-5.4844 1.5742-2.0859 0.59766-1.1562 3.832 0.92969 3.2344 1.1562-0.33203 2.3164-0.66406 3.4766-0.99609 0.41406 6.3945 0.82812 12.789 1.2422 19.184-7.0547 2.0273-14.109 4.0508-21.168 6.0781-1.7266-6.0195-3.4531-12.039-5.1797-18.055 2.375-0.68359 4.75-1.3633 7.1211-2.0469 2.0859-0.59766 1.1562-3.832-0.92969-3.2344-16.035 4.6016-32.07 9.2031-48.105 13.809-4.0391 1.1602-8.0781 2.3164-12.117 3.4766-1.5547-3.5898-3.1094-7.1797-4.6641-10.77-0.36719-0.84375-1.1133-1.4336-2.082-1.1562-0.74609 0.21484-1.4922 0.42969-2.2383 0.64453-1.1172-2.0391-3.1016-3.1484-5.7031-2.5898-1.5547 0.33594-3.0898 0.88672-4.6133 1.3242-1.9727 0.56641-3.9414 1.1289-5.9102 1.6953-2.8242 0.8125-4.2969 3.3477-3.6797 6.207 0.66016 3.0508 3.2852 4.8164 6.3359 4.1562 1.5547-0.33594 3.0898-0.88672 4.6172-1.3242 1.9688-0.56641 3.9414-1.1289 5.9102-1.6953 2.2383-0.64453 3.6211-2.375 3.793-4.4883 0.33984-0.097656 0.67578-0.19141 1.0117-0.28906 6.2344 14.387 12.465 28.773 18.695 43.16 3.2578 7.5234 6.5156 15.043 9.7734 22.566 0.36328 0.83984 1.1133 1.4297 2.0781 1.1523 16.145-4.6328 32.289-9.2656 48.434-13.902 2.7969-0.80078 5.5977-1.6055 8.3984-2.4102 2.0859-0.59766 1.1562-3.832-0.92969-3.2344-16.141 4.6328-32.285 9.2656-48.43 13.902-2.332 0.66797-4.6641 1.3359-6.9961 2.0078-0.82422-1.9102-1.6484-3.8125-2.4766-5.7188 14.555-6.1875 29.105-12.379 43.656-18.57 6.3008-2.6797 12.605-5.3594 18.906-8.0391 0.67188-0.28516 1.2695-0.82812 1.2188-1.6367-0.91406-14.137-1.8281-28.277-2.7461-42.414-0.070312-1.082-1.0547-1.9141-2.1445-1.6016" fill="#0049ac"/>
</g>
</g>
</g>
</g>
</g>
<g clip-path="url(#a)">
<g clip-path="url(#q)">
<g clip-path="url(#p)">
<g clip-path="url(#o)">
<g clip-path="url(#n)">
<path d="m76.238 221.68c-1.3398-3.9805 4.9062-5.7539 6.2383-1.7891 0.97656 4.082-4.8984 5.7695-6.2383 1.7891zm9.2969-3.168c-1.3164-3.2305-4.5508-4.9062-8-4.082-3.6094 0.85937-5.3359 4.8086-4.5273 8.1797 0.86328 3.6094 4.8086 5.3398 8.1758 4.5352 3.4492-0.82422 5.1758-4.4648 4.6172-7.7305-0.011719-0.14453-0.039062-0.29297-0.089843-0.44922-0.042969-0.17188-0.10156-0.32422-0.17578-0.45312" fill="#0049ac"/>
</g>
</g>
</g>
</g>
</g>
<g clip-path="url(#m)">
<g clip-path="url(#l)">
<g clip-path="url(#k)">
<g clip-path="url(#j)">
<g clip-path="url(#i)">
<path d="m118.39 209.58c-1.3398-3.9805 4.9023-5.7539 6.2383-1.7891 0.97656 4.082-4.9023 5.7695-6.2383 1.7891zm9.293-3.168c-1.3125-3.2305-4.5469-4.9102-8-4.0859-3.6094 0.86328-5.332 4.8125-4.5273 8.1836 0.86328 3.6094 4.8086 5.3398 8.1758 4.5352 3.4492-0.82422 5.1758-4.4688 4.6172-7.7305-0.007813-0.14453-0.035157-0.29297-0.089844-0.45312-0.039063-0.17188-0.10156-0.32031-0.17578-0.44922" fill="#0049ac"/>
</g>
</g>
</g>
</g>
</g>
<g>
<g transform="translate(142.36 195.86)">
<path d="m12.469-32.328h11.797v8.3125h-11.797v24.016h-9.1406v-58.188h24.188v8.3125h-15.047z"/>
</g>
</g>
<g>
<g transform="translate(186.75 195.86)">
<path d="m12.469-32.328h11.797v8.3125h-11.797v24.016h-9.1406v-58.188h24.188v8.3125h-15.047z"/>
</g>
</g>
<g>
<g transform="translate(231.13 195.86)">
<path d="m12.469-33.672h12.547v8.3125h-12.547v17.047h15.797v8.3125h-24.938v-58.188h24.938v8.3125h-15.797z"/>
</g>
</g>
<g>
<g transform="translate(277.5 195.86)">
<path d="m22.438 0c-0.10547-0.38281-0.21484-0.74219-0.32812-1.0781-0.11719-0.33203-0.21484-0.75-0.29688-1.25-0.074219-0.5-0.125-1.1328-0.15625-1.9062-0.03125-0.78125-0.046875-1.7539-0.046875-2.9219v-9.1406c0-2.707-0.47656-4.6133-1.4219-5.7188-0.9375-1.1133-2.4609-1.6719-4.5625-1.6719h-3.1562v23.688h-9.1406v-58.188h13.797c4.7578 0 8.207 1.1094 10.344 3.3281 2.1328 2.2188 3.2031 5.5742 3.2031 10.062v4.5625c0 5.9922-1.9961 9.9297-5.9844 11.812 2.3203 0.9375 3.9102 2.4766 4.7656 4.6094 0.86328 2.1367 1.2969 4.7266 1.2969 7.7656v8.9844c0 1.4375 0.054688 2.6992 0.17188 3.7812 0.11328 1.0859 0.39062 2.1797 0.82812 3.2812zm-9.9688-49.875v17.875h3.5781c1.7188 0 3.0625-0.44141 4.0312-1.3281 0.96875-0.88281 1.4531-2.4922 1.4531-4.8281v-5.7344c0-2.1016-0.375-3.625-1.125-4.5625-0.75-0.94531-1.9297-1.4219-3.5312-1.4219z"/>
</g>
</g>
<g>
<g transform="translate(326.7 195.86)"/>
</g>
<g>
<g transform="translate(92.946 252.93)">
<path d="m2.5312-29.047h7.5625l8 19.516h0.34375l8-19.516h7.5781v29.047h-5.9688v-18.906h-0.23438l-7.5156 18.766h-4.0625l-7.5156-18.828h-0.23438v18.969h-5.9531z"/>
</g>
</g>
<g>
<g transform="translate(142.95 252.93)">
<path d="m7.5312 0h-6.5781l10.031-29.047h7.9062l10.016 29.047h-6.5781l-2.1562-6.625h-10.484zm3.7188-11.422h7.375l-3.5781-10.984h-0.21875z"/>
</g>
</g>
<g>
<g transform="translate(185.93 252.93)">
<path d="m2.5312 0v-29.047h11.453c3.3008 0 5.8594 0.85938 7.6719 2.5781 1.8203 1.7188 2.7344 4.0234 2.7344 6.9062 0 1.9922-0.44531 3.6875-1.3281 5.0938-0.88672 1.4062-2.1523 2.4648-3.7969 3.1719l6.1562 11.297h-6.7656l-5.5156-10.297h-4.4688v10.297zm6.1406-15.234h4.1562c3.4883 0 5.2344-1.4414 5.2344-4.3281 0-2.9766-1.75-4.4688-5.25-4.4688h-4.1406z"/>
</g>
</g>
<g>
<g transform="translate(225.24 252.93)">
<path d="m2.5312 0v-29.047h6.1406v12.812h0.375l10.453-12.812h7.3594l-10.781 13 10.906 16.047h-7.3438l-7.9531-11.938-3.0156 3.6875v8.25z"/>
</g>
</g>
<g>
<g transform="translate(265.89 252.93)">
<path d="m2.5312 0v-29.047h19.562v5.0625h-13.422v6.9219h12.422v5.0625h-12.422v6.9375h13.484v5.0625z"/>
</g>
</g>
<g>
<g transform="translate(303.46 252.93)">
<path d="m1.4219-23.984v-5.0625h23.844v5.0625h-8.8906v23.984h-6.0625v-23.984z"/>
</g>
</g>
</g>
</svg>