<svg width="317" height="258" viewBox="0 0 317 258" fill="none" xmlns="http://www.w3.org/2000/svg">
<g clip-path="url(#clip0)">
<path d="M112.769 60.0327C112.637 60.0325 112.51 59.9791 112.414 59.883C112.318 59.787 112.259 59.6555 112.25 59.5151C111.91 54.5703 109.837 49.9454 106.446 46.5657C103.054 43.186 98.5952 41.3008 93.9603 41.2875C93.4056 41.2875 92.8229 41.3176 92.2283 41.3772C92.1288 41.3872 92.0288 41.3663 91.9401 41.3171C91.8515 41.2679 91.7779 41.1924 91.7283 41.0997C89.5993 37.1132 86.4199 33.8858 82.587 31.8201C78.754 29.7544 74.4373 28.942 70.1755 29.4842C65.9136 30.0264 61.8954 31.8993 58.6224 34.8691C55.3493 37.8388 52.9663 41.774 51.7707 46.1834C51.7391 46.3016 51.6717 46.4051 51.5791 46.4778C51.4865 46.5505 51.3739 46.5882 51.259 46.585L51.1207 46.5805C51.0487 46.5779 50.9768 46.5752 50.9043 46.5752C47.3888 46.5869 43.9827 47.8842 41.2512 50.2517C38.5197 52.6191 36.627 55.9145 35.8872 59.5909C35.8626 59.7159 35.7986 59.828 35.7059 59.9084C35.6132 59.9888 35.4974 60.0327 35.3781 60.0327H0.519912C0.382156 60.0323 0.250167 59.9735 0.152888 59.8692C0.0556077 59.7648 0.000976562 59.6235 0.000976562 59.4761C0.000976562 59.3288 0.0556077 59.1874 0.152888 59.0831C0.250167 58.9787 0.382156 58.9199 0.519912 58.9195H34.9617C35.8287 55.0955 37.8682 51.6923 40.7546 49.2531C43.641 46.8139 47.208 45.4792 50.8863 45.462C52.1958 40.9308 54.7073 36.9039 58.1156 33.8705C61.5239 30.8371 65.6823 28.9278 70.0857 28.3746C74.4891 27.8214 78.9479 28.6481 82.9204 30.7541C86.893 32.8602 90.2083 36.1551 92.4636 40.2385C92.9754 40.1958 93.4775 40.1743 93.9603 40.1743C98.8583 40.1885 103.571 42.1808 107.154 45.7524C110.738 49.3241 112.929 54.2116 113.288 59.4371C113.293 59.51 113.284 59.5833 113.263 59.6526C113.241 59.7219 113.207 59.786 113.162 59.8412C113.117 59.8964 113.063 59.9416 113.001 59.9742C112.94 60.0068 112.874 60.0263 112.806 60.0314C112.793 60.0323 112.781 60.0327 112.769 60.0327Z" fill="#CBCBCB"/>
<path d="M106.578 67.1693H21.2469C21.1089 67.1693 20.9765 67.1106 20.879 67.0062C20.7814 66.9018 20.7266 66.7603 20.7266 66.6127C20.7266 66.465 20.7814 66.3235 20.879 66.2191C20.9765 66.1147 21.1089 66.0561 21.2469 66.0561H106.578C106.716 66.0561 106.849 66.1147 106.946 66.2191C107.044 66.3235 107.099 66.465 107.099 66.6127C107.099 66.7603 107.044 66.9018 106.946 67.0062C106.849 67.1106 106.716 67.1693 106.578 67.1693Z" fill="#CBCBCB"/>
<path d="M42.0594 75.2399H13.4421C13.3737 75.2401 13.3059 75.2259 13.2426 75.198C13.1793 75.1701 13.1218 75.1291 13.0733 75.0774C13.0248 75.0257 12.9864 74.9643 12.9601 74.8967C12.9339 74.829 12.9204 74.7565 12.9204 74.6833C12.9204 74.6101 12.9339 74.5376 12.9601 74.47C12.9864 74.4024 13.0248 74.3409 13.0733 74.2892C13.1218 74.2375 13.1793 74.1965 13.2426 74.1687C13.3059 74.1408 13.3737 74.1265 13.4421 74.1267H42.0594C42.1971 74.1271 42.3291 74.1859 42.4264 74.2903C42.5237 74.3946 42.5783 74.536 42.5783 74.6833C42.5783 74.8307 42.5237 74.972 42.4264 75.0764C42.3291 75.1807 42.1971 75.2395 42.0594 75.2399Z" fill="#CBCBCB"/>
<path d="M68.8152 183.539C68.8152 206.167 46.6383 216.995 46.6383 216.995C46.6383 216.995 24.2339 206.167 23.779 183.539C23.5116 170.238 33.8607 159.451 46.2971 159.451C49.2542 159.45 52.1824 160.074 54.9144 161.284C57.6465 162.495 60.1288 164.269 62.2198 166.506C64.3108 168.743 65.9695 171.398 67.1012 174.321C68.2328 177.243 68.8153 180.376 68.8152 183.539Z" fill="#E5E5E5"/>
<path d="M54.1445 218.333H39.1323L37.3125 210.547H55.9639L54.1445 218.333Z" fill="#CBCBCB"/>
<path d="M53.6326 231.649H39.644V239.447H53.6326V231.649Z" fill="white"/>
<path d="M53.7463 239.569H39.5303V231.527H53.7463V239.569ZM39.7577 239.325H53.5188V231.77H39.7577V239.325Z" fill="#CBCBCB"/>
<path d="M49.5057 219.251H43.7709L43.1128 218.145H50.1638L49.5057 219.251Z" fill="#CBCBCB"/>
<path d="M39.4716 218.333H39.2461V230.256H39.4716V218.333Z" fill="#CBCBCB"/>
<path d="M54.0287 218.333H53.8032V230.256H54.0287V218.333Z" fill="#CBCBCB"/>
<path d="M48.9182 210.415L48.7793 210.222C55.3503 204.802 63.1832 195.515 63.1832 182.058C63.1885 177.345 61.8927 172.735 59.4584 168.806C57.0241 164.878 53.5597 161.805 49.4996 159.975L49.5882 159.751C53.6895 161.6 57.1891 164.703 59.6481 168.672C62.1071 172.64 63.416 177.297 63.4107 182.058C63.4107 195.614 55.5296 204.961 48.9182 210.415Z" fill="#CBCBCB"/>
<path d="M41.6394 210.415L41.5005 210.223C48.0715 204.802 55.9045 195.515 55.9045 182.058C55.9063 177.377 54.6261 172.797 52.2219 168.885C49.8178 164.973 46.3952 161.9 42.3767 160.046L42.4669 159.823C46.5261 161.696 49.9835 164.8 52.412 168.751C54.8405 172.703 56.1338 177.329 56.132 182.058C56.132 195.614 48.2508 204.961 41.6394 210.415Z" fill="#CBCBCB"/>
<path d="M50.9544 210.415C44.343 204.961 36.4619 195.614 36.4619 182.058C36.4601 177.329 37.7534 172.703 40.1819 168.751C42.6105 164.8 46.0679 161.696 50.1272 159.823L50.2174 160.046C46.1989 161.9 42.7761 164.973 40.372 168.885C37.9678 172.797 36.6876 177.377 36.6894 182.058C36.6894 195.515 44.5223 204.802 51.0933 210.222L50.9544 210.415Z" fill="#CBCBCB"/>
<path d="M43.6762 210.415C37.0647 204.961 29.1836 195.614 29.1836 182.058C29.1762 177.278 30.4943 172.603 32.9713 168.625C35.4482 164.647 38.9725 161.544 43.0984 159.709L43.1861 159.934C39.1017 161.75 35.6127 164.822 33.1607 168.76C30.7086 172.698 29.4037 177.326 29.4111 182.058C29.4111 195.516 37.244 204.802 43.815 210.222L43.6762 210.415Z" fill="#CBCBCB"/>
<path d="M46.4086 159.451H46.1831V210.547H46.4086V159.451Z" fill="#CBCBCB"/>
<path d="M43.7344 229.881L39.5635 234.343L39.7243 234.515L43.8952 230.053L43.7344 229.881Z" fill="#CBCBCB"/>
<path d="M45.7621 229.807L39.562 236.782L39.7268 236.95L45.9269 229.974L45.7621 229.807Z" fill="#CBCBCB"/>
<path d="M54.9405 229.891H37.8813V232.081H54.9405V229.891Z" fill="white"/>
<path d="M55.0542 232.202H37.7676V229.769H55.0542V232.202ZM37.995 231.959H54.8268V230.012H37.995V231.959Z" fill="#CBCBCB"/>
<path d="M111.734 126.191C111.734 141.127 97.0959 148.274 97.0959 148.274C97.0959 148.274 82.308 141.127 82.0077 126.191C81.8313 117.412 88.6621 110.292 96.8707 110.292C100.813 110.292 104.593 111.967 107.38 114.949C110.168 117.931 111.734 121.975 111.734 126.191Z" fill="#E5E5E5"/>
<path d="M102.051 149.157H92.1418L90.9409 144.018H103.252L102.051 149.157Z" fill="#CBCBCB"/>
<path d="M101.713 157.946H92.4795V163.093H101.713V157.946Z" fill="white"/>
<path d="M101.788 163.173H92.4048V157.866H101.788V163.173ZM92.5549 163.013H101.638V158.026H92.5549V163.013Z" fill="#CBCBCB"/>
<path d="M98.9888 149.763H95.2034L94.769 149.033H99.4231L98.9888 149.763Z" fill="#CBCBCB"/>
<path d="M92.366 149.157H92.2168V157.027H92.366V149.157Z" fill="#CBCBCB"/>
<path d="M101.974 149.157H101.825V157.027H101.974V149.157Z" fill="#CBCBCB"/>
<path d="M98.6009 143.931L98.5093 143.804C102.846 140.226 108.017 134.096 108.017 125.214C108.02 122.103 107.165 119.06 105.558 116.467C103.951 113.874 101.665 111.846 98.9847 110.638L99.0432 110.49C101.75 111.711 104.06 113.759 105.683 116.378C107.306 118.998 108.17 122.071 108.167 125.214C108.167 134.162 102.965 140.331 98.6009 143.931Z" fill="#CBCBCB"/>
<path d="M93.7967 143.931L93.7051 143.804C98.0422 140.226 103.212 134.096 103.212 125.214C103.214 122.124 102.369 119.101 100.782 116.519C99.1949 113.937 96.9358 111.909 94.2834 110.685L94.3429 110.538C97.0222 111.774 99.3042 113.823 100.907 116.431C102.51 119.039 103.364 122.093 103.362 125.214C103.362 134.162 98.1606 140.331 93.7967 143.931Z" fill="#CBCBCB"/>
<path d="M99.9451 143.931C95.5813 140.331 90.3794 134.162 90.3794 125.214C90.3782 122.093 91.2318 119.039 92.8348 116.431C94.4377 113.823 96.7198 111.774 99.3991 110.538L99.4586 110.685C96.8062 111.909 94.5471 113.937 92.9602 116.519C91.3734 119.101 90.5283 122.124 90.5295 125.214C90.5295 134.096 95.6996 140.226 100.037 143.804L99.9451 143.931Z" fill="#CBCBCB"/>
<path d="M95.1409 143.931C90.7771 140.331 85.5752 134.162 85.5752 125.214C85.5703 122.059 86.4403 118.974 88.0752 116.348C89.7101 113.722 92.0363 111.674 94.7596 110.463L94.8174 110.611C92.1215 111.81 89.8187 113.837 88.2002 116.437C86.5818 119.036 85.7205 122.091 85.7253 125.214C85.7253 134.096 90.8954 140.226 95.2326 143.804L95.1409 143.931Z" fill="#CBCBCB"/>
<path d="M96.9451 110.292H96.7959V144.018H96.9451V110.292Z" fill="#CBCBCB"/>
<path d="M95.1797 156.779L92.4268 159.724L92.5329 159.838L95.2858 156.893L95.1797 156.779Z" fill="#CBCBCB"/>
<path d="M96.5176 156.73L92.4253 161.334L92.5341 161.445L96.6264 156.841L96.5176 156.73Z" fill="#CBCBCB"/>
<path d="M102.576 156.786H91.3159V158.231H102.576V156.786Z" fill="white"/>
<path d="M102.651 158.311H91.2412V156.705H102.651V158.311ZM91.3913 158.151H102.501V156.866H91.3913V158.151Z" fill="#CBCBCB"/>
<path d="M236.169 146.611C236.263 146.611 236.354 146.573 236.423 146.504C236.492 146.435 236.534 146.341 236.54 146.24C236.784 142.696 238.27 139.381 240.701 136.958C243.132 134.536 246.328 133.185 249.65 133.175C250.048 133.175 250.466 133.197 250.892 133.239C250.963 133.246 251.035 133.231 251.098 133.196C251.162 133.161 251.215 133.107 251.25 133.04C252.776 130.183 255.055 127.87 257.803 126.389C260.55 124.908 263.644 124.326 266.699 124.715C269.754 125.103 272.634 126.446 274.98 128.574C277.326 130.703 279.034 133.524 279.891 136.684C279.914 136.769 279.962 136.843 280.029 136.895C280.095 136.947 280.176 136.974 280.258 136.972L280.357 136.969C280.409 136.967 280.46 136.965 280.512 136.965C283.032 136.974 285.474 137.903 287.432 139.6C289.389 141.297 290.746 143.659 291.276 146.295C291.294 146.384 291.34 146.465 291.406 146.522C291.473 146.58 291.556 146.611 291.641 146.611H316.627C316.676 146.611 316.725 146.601 316.77 146.581C316.816 146.561 316.857 146.532 316.892 146.495C316.927 146.458 316.954 146.414 316.973 146.365C316.992 146.317 317.001 146.265 317.001 146.212C317.001 146.16 316.992 146.108 316.973 146.059C316.954 146.011 316.927 145.967 316.892 145.93C316.857 145.893 316.816 145.863 316.77 145.843C316.725 145.823 316.676 145.813 316.627 145.813H291.94C291.318 143.072 289.857 140.633 287.788 138.885C285.719 137.136 283.162 136.18 280.525 136.167C279.587 132.919 277.786 130.033 275.343 127.859C272.9 125.684 269.92 124.316 266.763 123.919C263.607 123.523 260.411 124.115 257.564 125.625C254.716 127.134 252.34 129.496 250.723 132.423C250.356 132.392 249.996 132.377 249.65 132.377C246.14 132.387 242.762 133.815 240.193 136.375C237.624 138.935 236.054 142.439 235.796 146.184C235.793 146.237 235.799 146.289 235.815 146.339C235.83 146.389 235.855 146.434 235.887 146.474C235.919 146.514 235.958 146.546 236.002 146.569C236.046 146.593 236.093 146.607 236.142 146.61C236.151 146.611 236.16 146.611 236.169 146.611Z" fill="#CBCBCB"/>
<path d="M240.606 151.727H301.77C301.869 151.727 301.964 151.685 302.034 151.61C302.104 151.535 302.143 151.434 302.143 151.328C302.143 151.222 302.104 151.12 302.034 151.046C301.964 150.971 301.869 150.929 301.77 150.929H240.606C240.507 150.929 240.412 150.971 240.342 151.046C240.272 151.12 240.233 151.222 240.233 151.328C240.233 151.434 240.272 151.535 240.342 151.61C240.412 151.685 240.507 151.727 240.606 151.727Z" fill="#CBCBCB"/>
<path d="M286.852 157.512H307.365C307.464 157.511 307.558 157.469 307.628 157.394C307.698 157.32 307.737 157.218 307.737 157.113C307.737 157.007 307.698 156.906 307.628 156.831C307.558 156.756 307.464 156.714 307.365 156.714H286.852C286.803 156.714 286.755 156.724 286.71 156.744C286.664 156.764 286.623 156.794 286.589 156.831C286.554 156.868 286.527 156.912 286.508 156.96C286.489 157.008 286.479 157.06 286.479 157.113C286.479 157.165 286.489 157.217 286.508 157.265C286.527 157.314 286.554 157.358 286.589 157.395C286.623 157.432 286.664 157.461 286.71 157.481C286.755 157.501 286.803 157.512 286.852 157.512Z" fill="#CBCBCB"/>
<path d="M191.536 253.776H190.308L189.724 248.711H191.536V253.776Z" fill="#9F616A"/>
<path d="M191.849 255.049H187.891V254.996C187.891 254.559 188.054 254.14 188.342 253.831C188.631 253.522 189.023 253.348 189.431 253.348H191.849V255.049Z" fill="#2F2E41"/>
<path d="M207.367 251.288L206.314 251.964L203.375 247.944L204.928 246.946L207.367 251.288Z" fill="#9F616A"/>
<path d="M204.855 254.387L204.829 254.341C204.619 253.967 204.557 253.518 204.656 253.094C204.755 252.67 205.007 252.305 205.356 252.08L207.429 250.748L208.248 252.207L204.855 254.387Z" fill="#2F2E41"/>
<path d="M191.855 252.731L191.834 252.731C191.237 252.729 190.64 252.692 190.047 252.621C189.82 252.597 189.575 252.571 189.279 252.545L189.269 252.543C189.068 252.479 189.062 250.455 189.147 243.528C189.191 239.98 189.241 235.959 189.182 233.398L189.181 233.373L189.199 233.356C190.267 232.355 191.541 231.638 192.917 231.264C194.294 230.89 195.733 230.87 197.118 231.205L197.14 231.21L197.151 231.23C198.358 233.414 200.179 236.56 201.941 239.602C205.985 246.586 207.142 248.64 207.015 248.794L207 248.807C206.724 248.955 206.516 249.069 206.34 249.165C205.642 249.552 204.926 249.898 204.193 250.201L204.16 250.216L204.137 250.188C200.033 245.378 196.618 240.005 194.506 235.037C194.259 236.733 193.96 238.947 193.643 241.287C192.733 248.015 192.118 252.445 191.87 252.715L191.855 252.731Z" fill="#2F2E41"/>
<path d="M192.961 233.915C195.408 233.904 197.838 234.339 200.148 235.202C200.229 231.054 198.929 227.01 196.481 223.792L196.463 223.769L196.472 223.74C197.117 221.748 197.783 219.688 198.378 217.639L198.369 217.605C197.952 216.017 197.055 214.412 195.629 212.699C195.475 212.528 195.265 212.426 195.042 212.414C194.82 212.402 194.601 212.48 194.431 212.634C193.182 213.857 192.209 215.367 191.586 217.051C190.962 218.735 190.706 220.548 190.834 222.354L190.835 222.364L190.833 222.374C189.716 226.421 189.311 228.5 188.953 230.334C188.692 231.672 188.466 232.83 188.013 234.485C189.638 234.107 191.297 233.916 192.961 233.915Z" fill="#CBCBCB"/>
<path opacity="0.1" d="M196.564 221.123L192.931 229.582L190.855 227.335L196.564 221.123Z" fill="black"/>
<path d="M195.01 211.876C196.438 211.876 197.595 210.638 197.595 209.111C197.595 207.584 196.438 206.346 195.01 206.346C193.583 206.346 192.426 207.584 192.426 209.111C192.426 210.638 193.583 211.876 195.01 211.876Z" fill="#9F616A"/>
<path d="M191.876 207.549H195.98V205.636C195.079 205.253 194.198 204.927 193.665 205.636C193.191 205.636 192.736 205.837 192.4 206.196C192.065 206.555 191.876 207.042 191.876 207.549Z" fill="#2F2E41"/>
<path d="M196.208 205.298C198.661 205.298 199.348 208.588 199.348 210.443C199.348 211.478 198.91 211.849 198.223 211.974L197.98 210.589L197.411 212.034C197.218 212.035 197.015 212.031 196.805 212.026L196.612 211.602L196.182 212.019C194.46 212.021 193.068 212.29 193.068 210.443C193.068 208.588 193.67 205.298 196.208 205.298Z" fill="#2F2E41"/>
<path d="M270.312 77.5705C270.312 150.44 198.897 185.307 198.897 185.307C198.897 185.307 126.749 150.44 125.284 77.5705C124.423 34.7394 157.75 0 197.798 0C237.846 0 270.312 34.7295 270.312 77.5705Z" fill="#6C63FF"/>
<path d="M200.429 253.204H198.924L198.208 246.993H200.429V253.204Z" fill="#FFB7B7"/>
<path d="M197.848 252.744H200.751V254.699H196.021C196.021 254.442 196.068 254.188 196.16 253.951C196.252 253.713 196.386 253.498 196.556 253.316C196.726 253.135 196.927 252.991 197.149 252.892C197.371 252.794 197.608 252.744 197.848 252.744Z" fill="#2F2E41"/>
<path d="M206.077 253.204H204.572L203.855 246.993H206.077L206.077 253.204Z" fill="#FFB7B7"/>
<path d="M203.496 252.744H206.399V254.699H201.668C201.668 254.18 201.861 253.683 202.204 253.316C202.547 252.95 203.012 252.744 203.496 252.744Z" fill="#2F2E41"/>
<path d="M205.893 234.705C205.731 234.593 205.593 234.445 205.491 234.271C205.388 234.096 205.322 233.9 205.298 233.695C205.274 233.49 205.292 233.283 205.351 233.086C205.41 232.89 205.508 232.71 205.64 232.558L204.648 217.512L207.504 217.808L207.582 232.543C207.805 232.796 207.933 233.127 207.943 233.474C207.953 233.821 207.843 234.16 207.635 234.427C207.427 234.693 207.134 234.869 206.813 234.92C206.492 234.971 206.165 234.895 205.893 234.705Z" fill="#FFB7B7"/>
<path d="M200.358 250.075L198.701 249.99C198.559 249.983 198.426 249.918 198.328 249.809C198.23 249.7 198.175 249.555 198.174 249.404L198.059 231.468C198.058 231.383 198.075 231.298 198.107 231.221C198.14 231.143 198.188 231.074 198.248 231.018C198.308 230.962 198.379 230.921 198.455 230.897C198.531 230.872 198.612 230.866 198.691 230.879L205.32 231.908C205.451 231.928 205.571 231.997 205.658 232.104C205.745 232.21 205.793 232.347 205.793 232.489L206.646 249.108C206.647 249.186 206.633 249.264 206.605 249.336C206.578 249.408 206.537 249.474 206.486 249.529C206.434 249.585 206.373 249.629 206.306 249.659C206.239 249.689 206.166 249.704 206.093 249.704H204.307C204.175 249.705 204.048 249.654 203.947 249.563C203.847 249.471 203.781 249.344 203.761 249.205C203.761 249.205 202.412 236.738 202.226 236.746C202.04 236.749 200.933 249.555 200.933 249.555C200.916 249.698 200.851 249.83 200.75 249.926C200.649 250.022 200.519 250.075 200.384 250.075C200.375 250.075 200.366 250.075 200.358 250.075Z" fill="#2F2E41"/>
<path d="M205.295 222.568C205.228 222.516 205.173 222.449 205.134 222.372C205.094 222.295 205.071 222.209 205.067 222.121L204.858 218.065C204.837 217.664 204.956 217.268 205.192 216.954C205.428 216.641 205.764 216.432 206.135 216.368C206.507 216.304 206.887 216.389 207.203 216.607C207.519 216.826 207.749 217.161 207.847 217.55L208.766 221.176C208.804 221.327 208.785 221.488 208.712 221.624C208.639 221.76 208.519 221.86 208.377 221.901L205.763 222.659C205.684 222.682 205.601 222.686 205.52 222.67C205.439 222.654 205.362 222.619 205.295 222.568Z" fill="#3F3D56"/>
<path d="M202.853 212.929C204.519 212.929 205.869 211.485 205.869 209.703C205.869 207.922 204.519 206.477 202.853 206.477C201.188 206.477 199.837 207.922 199.837 209.703C199.837 211.485 201.188 212.929 202.853 212.929Z" fill="#FFB7B7"/>
<path d="M204.987 212.256C204.861 212.401 204.699 212.505 204.519 212.555C204.34 212.605 204.151 212.6 203.974 212.539C203.798 212.478 203.641 212.365 203.523 212.212C203.405 212.059 203.329 211.874 203.306 211.677C203.301 211.609 203.301 211.54 203.308 211.472C203.346 211.084 203.555 210.732 203.505 210.323C203.493 210.221 203.458 210.124 203.402 210.04C202.953 209.398 201.901 210.328 201.478 209.746C201.218 209.39 201.523 208.828 201.324 208.43C201.062 207.904 200.283 208.164 199.795 207.876C199.252 207.555 199.285 206.664 199.642 206.122C199.875 205.801 200.171 205.54 200.509 205.356C200.846 205.172 201.218 205.07 201.597 205.057C202.356 205.038 203.11 205.195 203.806 205.518C204.629 205.804 205.355 206.343 205.894 207.066C206.173 207.541 206.349 208.076 206.411 208.633C206.473 209.189 206.418 209.754 206.251 210.285C206.069 210.936 205.447 211.732 204.987 212.256Z" fill="#2F2E41"/>
<path d="M205.863 215.084C205.811 215.044 205.757 215.004 205.703 214.966C205.414 214.76 205.1 214.595 204.77 214.476V213.629H202.438V214.415C201.664 214.643 200.971 215.11 200.443 215.756C199.916 216.403 199.577 217.201 199.471 218.052L197.882 230.668C197.872 230.746 197.877 230.827 197.896 230.903C197.916 230.98 197.95 231.052 197.996 231.114C198.042 231.176 198.098 231.228 198.163 231.265C198.227 231.303 198.298 231.327 198.371 231.334C199.484 231.488 200.557 231.881 201.524 232.489C202.227 232.906 203.018 233.122 203.821 233.116C204.459 233.114 205.091 232.993 205.691 232.76C205.792 232.72 205.881 232.649 205.944 232.555C206.008 232.462 206.044 232.35 206.049 232.234C206.106 230.877 206.441 223.888 207.415 219.625C207.604 218.789 207.558 217.912 207.282 217.103C207.006 216.295 206.512 215.593 205.863 215.084Z" fill="#3F3D56"/>
<path d="M223.069 189.617H174.726L168.866 164.543H228.928L223.069 189.617Z" fill="#3F3D56"/>
<path d="M221.42 232.496H176.374V257.608H221.42V232.496Z" fill="white"/>
<path d="M221.786 258H176.007V232.105H221.786V258ZM176.74 257.216H221.054V232.888H176.74V257.216Z" fill="#3F3D56"/>
<path d="M208.131 192.573H189.663L187.544 189.011H210.25L208.131 192.573Z" fill="#3F3D56"/>
<path d="M175.824 189.617H175.092V228.01H175.824V189.617Z" fill="#3F3D56"/>
<path d="M222.702 189.617H221.97V228.01H222.702V189.617Z" fill="#3F3D56"/>
<path d="M206.239 164.119L205.792 163.498C226.952 146.042 252.176 116.138 252.176 72.8021C252.193 57.6243 248.02 42.779 240.181 30.128C232.342 17.477 221.186 7.58351 208.111 1.68836L208.396 0.966797C221.604 6.92178 232.873 16.9156 240.792 29.695C248.71 42.4744 252.925 57.4703 252.908 72.8021C252.908 116.456 227.529 146.556 206.239 164.119Z" fill="#3F3D56"/>
<path d="M182.8 164.119L182.353 163.498C203.513 146.043 228.737 116.138 228.737 72.8021C228.743 57.7264 224.62 42.979 216.878 30.3817C209.136 17.7844 198.115 7.88898 185.174 1.91775L185.465 1.19849C198.536 7.23031 209.67 17.2261 217.49 29.9513C225.311 42.6764 229.475 57.5734 229.469 72.8021C229.469 116.456 204.09 146.556 182.8 164.119Z" fill="#3F3D56"/>
<path d="M212.796 164.119C191.506 146.556 166.127 116.456 166.127 72.8021C166.121 57.5732 170.286 42.6761 178.106 29.951C185.927 17.2258 197.061 7.22997 210.132 1.19827L210.423 1.91754C197.482 7.88866 186.46 17.7841 178.718 30.3814C170.976 42.9788 166.854 57.7262 166.859 72.8021C166.859 116.138 192.083 146.042 213.244 163.498L212.796 164.119Z" fill="#3F3D56"/>
<path d="M189.358 164.119C168.067 146.556 142.688 116.457 142.688 72.8021C142.664 57.4099 146.909 42.3559 154.885 29.545C162.861 16.7341 174.211 6.74205 187.497 0.833099L187.779 1.55619C174.627 7.40574 163.391 17.2974 155.495 29.9796C147.599 42.6618 143.397 57.5645 143.421 72.8021C143.421 116.138 168.645 146.043 189.805 163.498L189.358 164.119Z" fill="#3F3D56"/>
<path d="M198.165 0H197.432V164.543H198.165V0Z" fill="#3F3D56"/>
<path d="M189.546 226.803L176.115 241.171L176.633 241.725L190.064 227.357L189.546 226.803Z" fill="#3F3D56"/>
<path d="M196.075 226.564L176.109 249.027L176.64 249.567L196.606 227.104L196.075 226.564Z" fill="#3F3D56"/>
<path d="M225.632 226.835H170.697V233.887H225.632V226.835Z" fill="white"/>
<path d="M225.998 234.279H170.331V226.443H225.998V234.279ZM171.064 233.495H225.266V227.227H171.064V233.495Z" fill="#3F3D56"/>
<path d="M188.465 230.115C188.612 230.104 188.754 230.059 188.883 229.982C189.012 229.906 189.123 229.8 189.21 229.673C189.296 229.545 189.356 229.399 189.383 229.245C189.411 229.09 189.407 228.931 189.371 228.778L192.365 226.68L190.658 225.891L188.077 228.004C187.841 228.086 187.641 228.257 187.516 228.485C187.39 228.714 187.347 228.984 187.394 229.244C187.442 229.504 187.578 229.736 187.775 229.897C187.972 230.057 188.218 230.135 188.465 230.115H188.465Z" fill="#9F616A"/>
<path d="M191.345 228.604L191.307 228.575C190.595 228.014 189.804 227.434 189.039 226.873L188.993 226.84L189.029 226.794C190.662 224.751 192.296 222.617 193.876 220.553L193.873 220.545L193.888 220.537L193.895 220.529L193.898 220.532L193.907 220.527L193.864 220.53L193.377 216.444C193.136 216.019 193.013 215.529 193.022 215.032C193.031 214.535 193.173 214.051 193.43 213.637C193.725 213.189 194.165 212.875 194.664 212.753C195.163 212.631 195.686 212.711 196.134 212.976C196.355 213.135 196.54 213.344 196.675 213.59C196.809 213.835 196.891 214.11 196.913 214.394C196.945 214.646 196.923 214.903 196.849 215.146C196.776 215.388 196.653 215.61 196.489 215.796C196.657 217.779 196.732 219.77 196.712 221.762L196.712 221.78L196.701 221.796C195.016 224.086 193.165 226.363 191.375 228.566L191.345 228.604Z" fill="#CBCBCB"/>
<path d="M191.925 216.041C191.94 216.112 191.95 216.184 191.954 216.257L197.229 219.512L198.511 218.722L199.877 220.636L197.135 222.727L191.117 217.649C190.872 217.746 190.605 217.761 190.351 217.692C190.098 217.623 189.87 217.472 189.698 217.261C189.526 217.05 189.419 216.788 189.389 216.51C189.36 216.232 189.411 215.951 189.535 215.704C189.659 215.457 189.85 215.257 190.083 215.129C190.316 215.002 190.579 214.953 190.839 214.99C191.098 215.026 191.341 215.146 191.535 215.334C191.729 215.522 191.865 215.769 191.925 216.041H191.925Z" fill="#FFB7B7"/>
<path d="M197.417 219.235C197.408 219.147 197.418 219.059 197.446 218.976C197.473 218.893 197.518 218.817 197.576 218.755L200.26 215.883C200.526 215.598 200.881 215.429 201.257 215.408C201.633 215.387 202.002 215.515 202.295 215.769C202.587 216.022 202.782 216.382 202.841 216.779C202.899 217.177 202.819 217.583 202.614 217.921L200.702 221.072C200.622 221.203 200.497 221.296 200.354 221.328C200.211 221.361 200.061 221.331 199.938 221.246L197.666 219.669C197.597 219.621 197.539 219.557 197.496 219.482C197.452 219.407 197.426 219.323 197.417 219.235Z" fill="#3F3D56"/>
<path d="M160.893 191.273C160.798 191.273 160.708 191.235 160.639 191.166C160.57 191.097 160.528 191.003 160.521 190.902C160.277 187.358 158.791 184.043 156.36 181.62C153.93 179.198 150.733 177.846 147.411 177.837C147.013 177.837 146.596 177.858 146.17 177.901C146.098 177.908 146.027 177.893 145.963 177.858C145.899 177.823 145.847 177.769 145.811 177.702C144.285 174.845 142.006 172.531 139.259 171.051C136.511 169.57 133.417 168.988 130.362 169.376C127.308 169.765 124.427 171.107 122.081 173.236C119.735 175.365 118.027 178.186 117.17 181.346C117.147 181.431 117.099 181.505 117.033 181.557C116.966 181.609 116.886 181.636 116.803 181.634L116.704 181.631C116.653 181.629 116.601 181.627 116.549 181.627C114.029 181.635 111.588 182.565 109.63 184.262C107.672 185.959 106.315 188.321 105.785 190.956C105.767 191.046 105.721 191.126 105.655 191.184C105.589 191.242 105.506 191.273 105.42 191.273H80.4342C80.3851 191.273 80.3365 191.263 80.2911 191.243C80.2457 191.223 80.2045 191.194 80.1697 191.157C80.135 191.12 80.1074 191.076 80.0886 191.027C80.0697 190.979 80.0601 190.927 80.0601 190.874C80.0601 190.822 80.0697 190.77 80.0886 190.721C80.1074 190.673 80.135 190.629 80.1697 190.592C80.2045 190.555 80.2457 190.525 80.2911 190.505C80.3365 190.485 80.3851 190.475 80.4342 190.475H105.122C105.743 187.734 107.205 185.295 109.274 183.546C111.343 181.798 113.9 180.841 116.536 180.829C117.475 177.581 119.275 174.695 121.718 172.52C124.161 170.346 127.142 168.978 130.298 168.581C133.454 168.184 136.65 168.777 139.498 170.287C142.345 171.796 144.722 174.158 146.338 177.085C146.705 177.054 147.065 177.039 147.411 177.039C150.922 177.049 154.3 178.477 156.868 181.037C159.437 183.597 161.007 187.101 161.265 190.846C161.269 190.899 161.262 190.951 161.247 191.001C161.231 191.05 161.207 191.096 161.175 191.136C161.142 191.175 161.103 191.208 161.06 191.231C161.016 191.255 160.968 191.269 160.919 191.272C160.91 191.273 160.901 191.273 160.893 191.273Z" fill="#CBCBCB"/>
<path d="M156.456 196.389H95.2911C95.242 196.389 95.1934 196.378 95.148 196.358C95.1026 196.339 95.0614 196.309 95.0266 196.272C94.9919 196.235 94.9643 196.191 94.9455 196.143C94.9267 196.094 94.917 196.042 94.917 195.99C94.917 195.937 94.9267 195.885 94.9455 195.837C94.9643 195.788 94.9919 195.744 95.0266 195.707C95.0614 195.67 95.1026 195.641 95.148 195.621C95.1934 195.601 95.242 195.59 95.2911 195.591H156.456C156.555 195.591 156.649 195.633 156.719 195.707C156.789 195.782 156.829 195.884 156.829 195.99C156.829 196.095 156.789 196.197 156.719 196.272C156.649 196.346 156.555 196.389 156.456 196.389Z" fill="#CBCBCB"/>
<path d="M110.209 202.173H89.6964C89.6473 202.174 89.5987 202.163 89.5533 202.143C89.5079 202.123 89.4667 202.094 89.4319 202.057C89.3972 202.02 89.3696 201.976 89.3508 201.927C89.3319 201.879 89.3223 201.827 89.3223 201.775C89.3223 201.722 89.3319 201.67 89.3508 201.622C89.3696 201.573 89.3972 201.529 89.4319 201.492C89.4667 201.455 89.5079 201.426 89.5533 201.406C89.5987 201.386 89.6473 201.375 89.6964 201.376H110.209C110.258 201.375 110.307 201.386 110.352 201.406C110.397 201.426 110.439 201.455 110.473 201.492C110.508 201.529 110.536 201.573 110.555 201.622C110.573 201.67 110.583 201.722 110.583 201.775C110.583 201.827 110.573 201.879 110.555 201.927C110.536 201.976 110.508 202.02 110.473 202.057C110.439 202.094 110.397 202.123 110.352 202.143C110.307 202.163 110.258 202.174 110.209 202.173Z" fill="#CBCBCB"/>
</g>
<defs>
<clipPath id="clip0">
<rect width="317" height="258" fill="white"/>
</clipPath>
</defs>
</svg>
